<svg width="23" height="14" viewBox="0 0 23 14" fill="none" xmlns="http://www.w3.org/2000/svg">
<path d="M8.5 13.75H2.5C1.54 13.75 0.75 12.96 0.75 12V2C0.75 1.04 1.54 0.25 2.5 0.25H7.5C9.57 0.25 11.25 1.93 11.25 4C11.25 5.03 10.83 5.96 10.16 6.64C11.4 7.25 12.25 8.53 12.25 10C12.25 12.07 10.57 13.75 8.5 13.75ZM2.25 7.75V12C2.25 12.14 2.36 12.25 2.5 12.25H8.5C9.74 12.25 10.75 11.24 10.75 10C10.75 8.76 9.74 7.75 8.5 7.75H2.25ZM2.25 6.25H7.5C8.74 6.25 9.75 5.24 9.75 4C9.75 2.76 8.74 1.75 7.5 1.75H2.5C2.36 1.75 2.25 1.86 2.25 2V6.25ZM19.17 13.75H17.5C14.88 13.75 12.75 11.62 12.75 9C12.75 6.38 14.88 4.25 17.5 4.25C20.12 4.25 22.25 6.38 22.25 9C22.25 9.41 21.91 9.75 21.5 9.75H14.34C14.68 11.18 15.97 12.25 17.5 12.25H19.17C19.58 12.25 19.92 12.59 19.92 13C19.92 13.41 19.58 13.75 19.17 13.75ZM14.34 8.25H20.67C20.5 7.53926 20.0959 6.90633 19.5228 6.45291C18.9497 5.99949 18.2408 5.75193 17.51 5.75C16.778 5.7518 16.0679 5.99913 15.4931 6.45239C14.9184 6.90565 14.5124 7.53863 14.34 8.25ZM19 3.25H16C15.59 3.25 15.25 2.91 15.25 2.5C15.25 2.09 15.59 1.75 16 1.75H19C19.41 1.75 19.75 2.09 19.75 2.5C19.75 2.91 19.41 3.25 19 3.25Z" fill="#130F26"/>
</svg>
