<svg width="25" height="24" viewBox="0 0 25 24" fill="none" xmlns="http://www.w3.org/2000/svg">
<path d="M7.36999 12.281C6.94999 12.281 6.51999 12.261 6.09999 12.221L2.92999 11.931C2.83148 11.9219 2.73575 11.8934 2.64826 11.8472C2.56076 11.801 2.48323 11.7381 2.42008 11.6619C2.35693 11.5858 2.3094 11.4979 2.28022 11.4034C2.25103 11.3089 2.24076 11.2095 2.24999 11.111C2.28999 10.701 2.63999 10.391 3.06999 10.431L6.23999 10.721C11.14 11.171 15.9 8.69101 18.35 4.41101C18.56 4.05101 19.01 3.93101 19.37 4.13101C19.73 4.34101 19.85 4.79101 19.65 5.15101C17.13 9.58101 12.4 12.281 7.36999 12.281ZM5.99999 20.119C5.86926 20.118 5.74105 20.0829 5.62801 20.0173C5.51496 19.9516 5.421 19.8576 5.35538 19.7445C5.28975 19.6314 5.25474 19.5032 5.2538 19.3725C5.25285 19.2417 5.28601 19.113 5.34999 18.999C8.08999 14.209 13.41 11.429 18.9 11.939L22.07 12.229C22.1685 12.2382 22.2642 12.2667 22.3517 12.3129C22.4391 12.3591 22.5167 12.422 22.5798 12.4982C22.643 12.5743 22.6905 12.6622 22.7197 12.7567C22.7489 12.8512 22.7592 12.9505 22.75 13.049C22.7408 13.1475 22.7123 13.2432 22.6661 13.3307C22.6199 13.4182 22.557 13.4957 22.4808 13.5588C22.4047 13.622 22.3168 13.6695 22.2223 13.6987C22.1278 13.7279 22.0285 13.7382 21.93 13.729L18.76 13.439C13.86 12.989 9.09999 15.469 6.64999 19.749C6.50999 19.989 6.25999 20.119 5.99999 20.119Z" fill="#130F26"/>
<path d="M12.5 22.75C6.57 22.75 1.75 17.93 1.75 12C1.75 6.07 6.57 1.25 12.5 1.25C18.43 1.25 23.25 6.07 23.25 12C23.25 17.93 18.43 22.75 12.5 22.75ZM12.5 2.75C7.4 2.75 3.25 6.9 3.25 12C3.25 17.1 7.4 21.25 12.5 21.25C17.6 21.25 21.75 17.1 21.75 12C21.75 6.9 17.6 2.75 12.5 2.75Z" fill="#130F26"/>
<path d="M16.97 21.698C16.63 21.698 16.33 21.468 16.24 21.128L15.03 16.138C14.26 12.978 12.78 9.96804 10.73 7.42804L7.55001 3.47804C7.4841 3.40239 7.4341 3.31423 7.40301 3.21883C7.37192 3.12343 7.36036 3.02274 7.36904 2.92278C7.37771 2.82282 7.40644 2.72563 7.4535 2.63701C7.50056 2.54839 7.56499 2.47016 7.64294 2.40699C7.7209 2.34382 7.81078 2.297 7.90723 2.26933C8.00368 2.24165 8.10471 2.2337 8.2043 2.24593C8.30389 2.25816 8.4 2.29033 8.48688 2.34052C8.57377 2.39071 8.64965 2.45789 8.71001 2.53804L11.89 6.48804C14.0793 9.21284 15.6459 12.3836 16.48 15.778L17.69 20.768C17.79 21.168 17.54 21.578 17.14 21.678C17.09 21.688 17.03 21.698 16.97 21.698Z" fill="#130F26"/>
</svg>
