<svg width="41" height="45" viewBox="0 0 41 45" fill="none" xmlns="http://www.w3.org/2000/svg">
<rect x="0.5" width="40" height="45" rx="3" fill="#F8F9FA"/>
<path d="M28.1 18.6C29.1 18 29.8 17.1 30.2 16C30.6 14.9 30.6 13.8 30.3 12.7C30 11.6 29.3 10.7 28.4 10C27.5 9.3 26.3 9 25.2 9H16C14.8 9 13.7 9.4 12.8 10C11.7 10.7 11.1 11.7 10.7 12.7C10.4 13.8 10.4 15 10.8 16C11.2 17.1 11.9 18 12.9 18.6C12.2 19.1 11.5 19.7 11.1 20.5C10.7 21.3 10.5 22.1 10.5 23C10.5 23.9 10.7 24.7 11.1 25.5C11.5 26.3 12.1 26.9 12.9 27.4C11.9 28 11.2 28.9 10.8 30C10.4 31.1 10.4 32.2 10.7 33.3C11 34.4 11.7 35.3 12.7 36C13.6 36.7 14.8 37 15.9 37C17.3 37 18.7 36.4 19.8 35.5C20.8 34.5 21.4 33.2 21.4 31.8V27C22.4 27.9 23.7 28.4 25 28.4H25.1C26.3 28.4 27.4 28 28.3 27.4C29.2 26.7 29.9 25.8 30.2 24.7C30.5 23.6 30.5 22.5 30.1 21.4C29.8 20.1 29 19.2 28.1 18.6ZM21.4 10.7H25.1C25.6 10.7 26.1 10.7 26.5 10.9C27 11.1 27.4 11.3 27.7 11.7C28.1 12 28.3 12.4 28.5 12.9C28.7 13.4 28.8 13.8 28.8 14.3C28.8 14.8 28.7 15.3 28.5 15.7C28.3 16.1 28 16.5 27.7 16.9C27.3 17.2 26.9 17.5 26.5 17.7C26 17.9 25.5 17.9 25.1 17.9H21.4V10.7ZM15.9 10.7H19.6V17.7H15.9C15 17.7 14.1 17.3 13.5 16.6C12.8 16 12.5 15.1 12.5 14.2C12.5 13.3 12.9 12.4 13.5 11.8C14.1 11.2 15 10.8 15.9 10.7ZM12.3 23C12.3 22.1 12.7 21.2 13.4 20.5C14.1 19.8 15 19.5 16 19.5H19.7V26.5H16C15 26.5 14.1 26.1 13.4 25.5C12.7 24.8 12.3 23.9 12.3 23ZM19.6 31.7C19.6 32.7 19.2 33.6 18.5 34.2C17.8 34.9 16.9 35.2 15.9 35.2C15.4 35.2 14.9 35.2 14.5 35C14 34.8 13.6 34.6 13.3 34.3C12.9 34 12.7 33.6 12.5 33.1C12.3 32.7 12.2 32.2 12.2 31.7C12.2 31.2 12.3 30.7 12.5 30.3C12.7 29.9 13 29.5 13.3 29.1C13.7 28.8 14.1 28.5 14.5 28.3C15 28.1 15.5 28.1 15.9 28.1H19.6V31.7ZM25.1 26.5H25C24.1 26.5 23.2 26.1 22.6 25.4C22 24.7 21.6 23.9 21.6 23C21.6 22.1 22 21.2 22.6 20.6C23.2 19.9 24.1 19.6 25 19.5H25.1C25.6 19.5 26.1 19.5 26.5 19.7C27 19.9 27.4 20.1 27.7 20.5C28.1 20.8 28.3 21.2 28.5 21.7C28.7 22.1 28.8 22.6 28.8 23.1C28.8 23.6 28.7 24.1 28.5 24.5C28.3 24.9 28 25.3 27.7 25.7C27.3 26 26.9 26.3 26.5 26.5H25.1Z" fill="#130F26"/>
</svg>
