<svg width="25" height="24" viewBox="0 0 25 24" fill="none" xmlns="http://www.w3.org/2000/svg">
<path d="M15.5 22.75H9.5C4.07 22.75 1.75 20.43 1.75 15V9C1.75 3.57 4.07 1.25 9.5 1.25H15.5C20.93 1.25 23.25 3.57 23.25 9V15C23.25 20.43 20.93 22.75 15.5 22.75ZM9.5 2.75C4.89 2.75 3.25 4.39 3.25 9V15C3.25 19.61 4.89 21.25 9.5 21.25H15.5C20.11 21.25 21.75 19.61 21.75 15V9C21.75 4.39 20.11 2.75 15.5 2.75H9.5Z" fill="#130F26"/>
<path d="M12.5 16.25C11.3736 16.2474 10.2942 15.7988 9.49771 15.0023C8.70126 14.2059 8.25264 13.1264 8.25 12C8.25264 10.8737 8.70126 9.79421 9.49771 8.99776C10.2942 8.2013 11.3736 7.75268 12.5 7.75004C13.6264 7.75268 14.7058 8.2013 15.5023 8.99776C16.2987 9.79421 16.7474 10.8737 16.75 12C16.7474 13.1264 16.2987 14.2059 15.5023 15.0023C14.7058 15.7988 13.6264 16.2474 12.5 16.25ZM12.5 9.25004C10.98 9.25004 9.75 10.48 9.75 12C9.75 13.52 10.98 14.75 12.5 14.75C14.02 14.75 15.25 13.52 15.25 12C15.25 10.48 14.02 9.25004 12.5 9.25004ZM17.5 7.50004C17.37 7.50004 17.24 7.47004 17.12 7.42004C17 7.37004 16.89 7.30004 16.79 7.21004C16.7 7.11004 16.62 7.00004 16.57 6.88004C16.5218 6.75923 16.498 6.63009 16.5 6.50004C16.5 6.37004 16.52 6.24004 16.57 6.12004C16.63 5.99004 16.7 5.89004 16.79 5.79004C16.84 5.75004 16.89 5.70004 16.94 5.67004C17 5.63004 17.06 5.60004 17.12 5.58004C17.3023 5.50426 17.5028 5.48376 17.6966 5.5211C17.8904 5.55844 18.069 5.65197 18.21 5.79004C18.3 5.89004 18.37 5.99004 18.42 6.12004C18.47 6.24004 18.5 6.37004 18.5 6.50004C18.5 6.63004 18.47 6.76004 18.42 6.88004C18.37 7.00004 18.3 7.11004 18.21 7.21004C18.11 7.30004 18 7.37004 17.88 7.42004C17.76 7.47004 17.63 7.50004 17.5 7.50004Z" fill="#130F26"/>
</svg>
