<svg width="20" height="15" viewBox="0 0 20 15" fill="none" xmlns="http://www.w3.org/2000/svg">
<path d="M3.5 0H16.5C17.2956 0 18.0587 0.316071 18.6213 0.87868C19.1839 1.44129 19.5 2.20435 19.5 3V12C19.5 12.7956 19.1839 13.5587 18.6213 14.1213C18.0587 14.6839 17.2956 15 16.5 15H3.5C2.70435 15 1.94129 14.6839 1.37868 14.1213C0.816071 13.5587 0.5 12.7956 0.5 12V3C0.5 2.20435 0.816071 1.44129 1.37868 0.87868C1.94129 0.316071 2.70435 0 3.5 0ZM3.5 1C3 1 2.56 1.17 2.22 1.47L10 6.5L17.78 1.47C17.44 1.17 17 1 16.5 1H3.5ZM10 7.71L1.63 2.28C1.55 2.5 1.5 2.75 1.5 3V12C1.5 12.5304 1.71071 13.0391 2.08579 13.4142C2.46086 13.7893 2.96957 14 3.5 14H16.5C17.0304 14 17.5391 13.7893 17.9142 13.4142C18.2893 13.0391 18.5 12.5304 18.5 12V3C18.5 2.75 18.45 2.5 18.37 2.28L10 7.71Z" fill="#130F26"/>
</svg>
