<svg width="21" height="20" viewBox="0 0 21 20" fill="none" xmlns="http://www.w3.org/2000/svg">
<path d="M15.0417 18.9583C14.1 18.9583 13.1083 18.7333 12.0833 18.3C11.0833 17.875 10.075 17.2916 9.09167 16.5833C8.11667 15.8666 7.175 15.0666 6.28334 14.1916C5.40001 13.3 4.60001 12.3583 3.89167 11.3916C3.17501 10.3916 2.60001 9.39163 2.19167 8.42496C1.75834 7.39163 1.54167 6.39163 1.54167 5.44996C1.54167 4.79996 1.65834 4.18329 1.88334 3.60829C2.11667 3.01663 2.49167 2.46663 3.00001 1.99163C3.64167 1.35829 4.37501 1.04163 5.15834 1.04163C5.48334 1.04163 5.81667 1.11663 6.1 1.24996C6.425 1.39996 6.70001 1.62496 6.9 1.92496L8.83334 4.64996C9.00834 4.89163 9.14167 5.12496 9.23334 5.35829C9.34167 5.60829 9.40001 5.85829 9.40001 6.09996C9.40001 6.41663 9.30834 6.72496 9.13334 7.01663C8.98018 7.27694 8.79235 7.51523 8.575 7.72496L8.00834 8.31663C8.01667 8.34163 8.025 8.35829 8.03334 8.37496C8.13334 8.54996 8.33334 8.84996 8.71667 9.29996C9.125 9.76663 9.50834 10.1916 9.89167 10.5833C10.3833 11.0666 10.7917 11.45 11.175 11.7666C11.65 12.1666 11.9583 12.3666 12.1417 12.4583L12.125 12.5L12.7333 11.9C12.9917 11.6416 13.2417 11.45 13.4833 11.325C13.9417 11.0416 14.525 10.9916 15.1083 11.2333C15.325 11.325 15.5583 11.45 15.8083 11.625L18.575 13.5916C18.8833 13.8 19.1083 14.0666 19.2417 14.3833C19.3667 14.7 19.425 14.9916 19.425 15.2833C19.425 15.6833 19.3333 16.0833 19.1583 16.4583C18.9833 16.8333 18.7667 17.1583 18.4917 17.4583C18.0167 17.9833 17.5 18.3583 16.9 18.6C16.325 18.8333 15.7 18.9583 15.0417 18.9583ZM5.15834 2.29163C4.70001 2.29163 4.27501 2.49163 3.86667 2.89163C3.48334 3.24996 3.21667 3.64163 3.05 4.06663C2.87501 4.49996 2.79167 4.95829 2.79167 5.44996C2.79167 6.22496 2.97501 7.06663 3.34167 7.93329C3.71667 8.81663 4.24167 9.73329 4.90834 10.65C5.57501 11.5666 6.33334 12.4583 7.16667 13.3C8 14.125 8.9 14.8916 9.825 15.5666C10.725 16.225 11.65 16.7583 12.5667 17.1416C13.9917 17.75 15.325 17.8916 16.425 17.4333C16.85 17.2583 17.225 16.9916 17.5667 16.6083C17.7583 16.4 17.9083 16.175 18.0333 15.9083C18.1333 15.7 18.1833 15.4833 18.1833 15.2666C18.1833 15.1333 18.1583 15 18.0917 14.85C18.0384 14.7467 17.9577 14.6602 17.8583 14.6L15.0917 12.6333C14.925 12.5166 14.775 12.4333 14.6333 12.375C14.45 12.3 14.375 12.225 14.0917 12.4C13.925 12.4833 13.775 12.6083 13.6083 12.775L12.975 13.4C12.65 13.7166 12.15 13.7916 11.7667 13.65L11.5417 13.55C11.2 13.3666 10.8 13.0833 10.3583 12.7083C9.95834 12.3666 9.525 11.9666 9 11.45C8.59167 11.0333 8.18334 10.5916 7.75834 10.1C7.36667 9.64163 7.08334 9.24996 6.90834 8.92496L6.80834 8.67496C6.75834 8.48329 6.74167 8.37496 6.74167 8.25829C6.74167 7.95829 6.85 7.69163 7.05834 7.48329L7.68334 6.83329C7.85 6.66663 7.975 6.50829 8.05834 6.36663C8.125 6.25829 8.15001 6.16663 8.15001 6.08329C8.15001 6.01663 8.12501 5.91663 8.08334 5.81663C8.02501 5.68329 7.93334 5.53329 7.81667 5.37496L5.88334 2.64163C5.80533 2.52966 5.6989 2.44049 5.57501 2.38329C5.44167 2.32496 5.30001 2.29163 5.15834 2.29163ZM12.125 12.5083L11.9917 13.075L12.2167 12.4916C12.175 12.4833 12.1417 12.4916 12.125 12.5083ZM15.9167 8.12496C15.575 8.12496 15.2917 7.84163 15.2917 7.49996C15.2917 7.19996 14.9917 6.57496 14.4917 6.04163C14 5.51663 13.4583 5.20829 13 5.20829C12.6583 5.20829 12.375 4.92496 12.375 4.58329C12.375 4.24163 12.6583 3.95829 13 3.95829C13.8083 3.95829 14.6583 4.39163 15.4 5.18329C16.0917 5.92496 16.5417 6.83329 16.5417 7.49996C16.5417 7.84163 16.2583 8.12496 15.9167 8.12496ZM18.8333 8.12496C18.4917 8.12496 18.2083 7.84163 18.2083 7.49996C18.2083 4.62496 15.875 2.29163 13 2.29163C12.6583 2.29163 12.375 2.00829 12.375 1.66663C12.375 1.32496 12.6583 1.04163 13 1.04163C16.5583 1.04163 19.4583 3.94163 19.4583 7.49996C19.4583 7.84163 19.175 8.12496 18.8333 8.12496Z" fill="#130F26"/>
</svg>
