<svg width="40" height="45" viewBox="0 0 40 45" fill="none" xmlns="http://www.w3.org/2000/svg">
<rect width="40" height="45" rx="3" fill="#F8F9FA"/>
<path d="M14.375 24.6367H9.93359V22.3047H14.375C15.1484 22.3047 15.7734 22.1797 16.25 21.9297C16.7266 21.6797 17.0742 21.3359 17.293 20.8984C17.5195 20.4531 17.6328 19.9453 17.6328 19.375C17.6328 18.8359 17.5195 18.332 17.293 17.8633C17.0742 17.3867 16.7266 17.0039 16.25 16.7148C15.7734 16.4258 15.1484 16.2812 14.375 16.2812H10.8359V31H7.89453V13.9375H14.375C15.6953 13.9375 16.8164 14.1719 17.7383 14.6406C18.668 15.1016 19.375 15.7422 19.8594 16.5625C20.3438 17.375 20.5859 18.3047 20.5859 19.3516C20.5859 20.4531 20.3438 21.3984 19.8594 22.1875C19.375 22.9766 18.668 23.582 17.7383 24.0039C16.8164 24.4258 15.6953 24.6367 14.375 24.6367ZM30.0547 27.5664C30.0547 27.2852 29.9844 27.0312 29.8438 26.8047C29.7031 26.5703 29.4336 26.3594 29.0352 26.1719C28.6445 25.9844 28.0664 25.8125 27.3008 25.6562C26.6289 25.5078 26.0117 25.332 25.4492 25.1289C24.8945 24.918 24.418 24.6641 24.0195 24.3672C23.6211 24.0703 23.3125 23.7188 23.0938 23.3125C22.875 22.9062 22.7656 22.4375 22.7656 21.9062C22.7656 21.3906 22.8789 20.9023 23.1055 20.4414C23.332 19.9805 23.6562 19.5742 24.0781 19.2227C24.5 18.8711 25.0117 18.5938 25.6133 18.3906C26.2227 18.1875 26.9023 18.0859 27.6523 18.0859C28.7148 18.0859 29.625 18.2656 30.3828 18.625C31.1484 18.9766 31.7344 19.457 32.1406 20.0664C32.5469 20.668 32.75 21.3477 32.75 22.1055H29.9258C29.9258 21.7695 29.8398 21.457 29.668 21.168C29.5039 20.8711 29.2539 20.6328 28.918 20.4531C28.582 20.2656 28.1602 20.1719 27.6523 20.1719C27.168 20.1719 26.7656 20.25 26.4453 20.4062C26.1328 20.5547 25.8984 20.75 25.7422 20.9922C25.5938 21.2344 25.5195 21.5 25.5195 21.7891C25.5195 22 25.5586 22.1914 25.6367 22.3633C25.7227 22.5273 25.8633 22.6797 26.0586 22.8203C26.2539 22.9531 26.5195 23.0781 26.8555 23.1953C27.1992 23.3125 27.6289 23.4258 28.1445 23.5352C29.1133 23.7383 29.9453 24 30.6406 24.3203C31.3438 24.6328 31.8828 25.0391 32.2578 25.5391C32.6328 26.0312 32.8203 26.6562 32.8203 27.4141C32.8203 27.9766 32.6992 28.4922 32.457 28.9609C32.2227 29.4219 31.8789 29.8242 31.4258 30.168C30.9727 30.5039 30.4297 30.7656 29.7969 30.9531C29.1719 31.1406 28.4688 31.2344 27.6875 31.2344C26.5391 31.2344 25.5664 31.0312 24.7695 30.625C23.9727 30.2109 23.3672 29.6836 22.9531 29.043C22.5469 28.3945 22.3438 27.7227 22.3438 27.0273H25.0742C25.1055 27.5508 25.25 27.9688 25.5078 28.2812C25.7734 28.5859 26.1016 28.8086 26.4922 28.9492C26.8906 29.082 27.3008 29.1484 27.7227 29.1484C28.2305 29.1484 28.6562 29.082 29 28.9492C29.3438 28.8086 29.6055 28.6211 29.7852 28.3867C29.9648 28.1445 30.0547 27.8711 30.0547 27.5664Z" fill="#130F26"/>
</svg>
