<svg width="41" height="45" viewBox="0 0 41 45" fill="none" xmlns="http://www.w3.org/2000/svg">
<rect x="1" width="40" height="45" rx="3" fill="#F8F9FA"/>
<path fill-rule="evenodd" clip-rule="evenodd" d="M21.0789 8.76428C21.0264 8.75907 20.9736 8.75907 20.9211 8.76428L13.4544 9.51095C13.3423 9.52201 13.2338 9.55661 13.136 9.61249C13.0383 9.66836 12.9534 9.74426 12.8869 9.83521L6.49334 18.5733C6.3846 18.7171 6.32791 18.8936 6.33256 19.0738C6.33721 19.254 6.40293 19.4274 6.51894 19.5653L20.3813 36.4144C20.4564 36.5059 20.5508 36.5797 20.6578 36.6303C20.7648 36.681 20.8816 36.7072 21 36.7072C21.1184 36.7072 21.2352 36.681 21.3422 36.6303C21.4492 36.5797 21.5436 36.5059 21.6187 36.4144L35.4811 19.5653C35.6001 19.4229 35.6658 19.2433 35.6667 19.0576V19.0064C35.6573 18.8494 35.6016 18.6987 35.5067 18.5733L29.1131 9.83735C29.0466 9.7464 28.9618 9.6705 28.864 9.61462C28.7662 9.55874 28.6577 9.52414 28.5456 9.51308L21.0789 8.76428ZM28.3067 18.2533V18.2043L28.3003 18.2533H28.3067ZM28.328 18.04H33.1344L28.9979 12.3888L28.3259 18.04H28.328ZM27.5515 11.0192L22.1605 10.4795L26.7045 18.1168L27.5515 11.0192ZM19.8395 10.4795L14.4485 11.0192L15.2933 18.1147L19.8395 10.4795ZM13 12.3888L8.8656 18.04H13.6741L13 12.3888ZM8.8272 19.8533L19.4192 32.7259L14.0112 19.9429C13.9983 19.9139 13.9876 19.884 13.9792 19.8533H8.8272ZM15.9888 19.8533L21 32.8304L26.0133 19.8533H15.9888ZM28.0208 19.8533C28.0124 19.884 28.0017 19.9139 27.9888 19.9429L22.5808 32.7259L33.1728 19.8533H28.0187H28.0208ZM21 11.6571L24.9253 18.2533H17.0747L21 11.6571Z" fill="#130F26"/>
</svg>
