<svg width="41" height="45" viewBox="0 0 41 45" fill="none" xmlns="http://www.w3.org/2000/svg">
<rect x="1" width="40" height="45" rx="3" fill="#F8F9FA"/>
<path d="M11.2812 13.9375L14.9023 20.1602L18.5234 13.9375H21.9102L16.7539 22.3867L22.0391 31H18.6172L14.9023 24.6602L11.1875 31H7.75391L13.0508 22.3867L7.88281 13.9375H11.2812ZM31.3555 28.375V13H34.1914V31H31.625L31.3555 28.375ZM23.1055 24.8008V24.5547C23.1055 23.5938 23.2188 22.7188 23.4453 21.9297C23.6719 21.1328 24 20.4492 24.4297 19.8789C24.8594 19.3008 25.3828 18.8594 26 18.5547C26.6172 18.2422 27.3125 18.0859 28.0859 18.0859C28.8516 18.0859 29.5234 18.2344 30.1016 18.5312C30.6797 18.8281 31.1719 19.2539 31.5781 19.8086C31.9844 20.3555 32.3086 21.0117 32.5508 21.7773C32.793 22.5352 32.9648 23.3789 33.0664 24.3086V25.0938C32.9648 26 32.793 26.8281 32.5508 27.5781C32.3086 28.3281 31.9844 28.9766 31.5781 29.5234C31.1719 30.0703 30.6758 30.4922 30.0898 30.7891C29.5117 31.0859 28.8359 31.2344 28.0625 31.2344C27.2969 31.2344 26.6055 31.0742 25.9883 30.7539C25.3789 30.4336 24.8594 29.9844 24.4297 29.4062C24 28.8281 23.6719 28.1484 23.4453 27.3672C23.2188 26.5781 23.1055 25.7227 23.1055 24.8008ZM25.9297 24.5547V24.8008C25.9297 25.3789 25.9805 25.918 26.082 26.418C26.1914 26.918 26.3594 27.3594 26.5859 27.7422C26.8125 28.1172 27.1055 28.4141 27.4648 28.6328C27.832 28.8438 28.2695 28.9492 28.7773 28.9492C29.418 28.9492 29.9453 28.8086 30.3594 28.5273C30.7734 28.2461 31.0977 27.8672 31.332 27.3906C31.5742 26.9062 31.7383 26.3672 31.8242 25.7734V23.6523C31.7773 23.1914 31.6797 22.7617 31.5312 22.3633C31.3906 21.9648 31.1992 21.6172 30.957 21.3203C30.7148 21.0156 30.4141 20.7812 30.0547 20.6172C29.7031 20.4453 29.2852 20.3594 28.8008 20.3594C28.2852 20.3594 27.8477 20.4688 27.4883 20.6875C27.1289 20.9062 26.832 21.207 26.5977 21.5898C26.3711 21.9727 26.2031 22.418 26.0938 22.9258C25.9844 23.4336 25.9297 23.9766 25.9297 24.5547Z" fill="#191623"/>
</svg>
